<svg width="62" height="71" viewBox="0 0 62 71" fill="none" xmlns="http://www.w3.org/2000/svg">
<path opacity="0.5" fill-rule="evenodd" clip-rule="evenodd" d="M0 1.77502L107 1.77502L107 12.425L-1.86559e-07 12.425L0 1.77502Z" fill="#424141"/>
<path fill-rule="evenodd" clip-rule="evenodd" d="M56.5973 4.68872L75.4631 4.68872L75.4631 10.0472L56.5973 10.0472L56.5973 4.68872Z" fill="#FFFC00"/>
<path fill-rule="evenodd" clip-rule="evenodd" d="M37.7316 4.68872L56.5974 4.68872L56.5974 10.0472L37.7316 10.0472L37.7316 4.68872Z" fill="#15FFAB"/>
<path fill-rule="evenodd" clip-rule="evenodd" d="M18.8657 4.68872L37.7314 4.68872L37.7314 10.0472L18.8657 10.0472L18.8657 4.68872Z" fill="#0AC5EF"/>
<path fill-rule="evenodd" clip-rule="evenodd" d="M-6.48499e-05 4.68872L18.8657 4.68872L18.8657 10.0472L-6.50433e-05 10.0472L-6.48499e-05 4.68872Z" fill="#6741B1"/>
<path opacity="0.5" fill-rule="evenodd" clip-rule="evenodd" d="M0 20.4125L107 20.4125L107 31.0625L-1.48664e-07 31.0625L0 20.4125Z" fill="#424141"/>
<path fill-rule="evenodd" clip-rule="evenodd" d="M43.0816 23.4434L57.4421 23.4434L57.4421 28.8018L43.0816 28.8019L43.0816 23.4434Z" fill="#FFFC00"/>
<path fill-rule="evenodd" clip-rule="evenodd" d="M28.721 23.4434L43.0815 23.4434L43.0815 28.8018L28.721 28.8019L28.721 23.4434Z" fill="#15FFAB"/>
<path fill-rule="evenodd" clip-rule="evenodd" d="M14.3607 23.4434L28.7212 23.4434L28.7212 28.8018L14.3607 28.8019L14.3607 23.4434Z" fill="#0AC5EF"/>
<path fill-rule="evenodd" clip-rule="evenodd" d="M7.05719e-05 23.4434L14.3606 23.4434L14.3606 28.8018L7.03785e-05 28.8019L7.05719e-05 23.4434Z" fill="#6741B1"/>
<rect width="2.25263" height="5.325" transform="matrix(-1 0 0 1 64.2 23.4434)" fill="white"/>
<path opacity="0.5" fill-rule="evenodd" clip-rule="evenodd" d="M0 39.9375L107 39.9375L107 50.5875L-1.86559e-07 50.5875L0 39.9375Z" fill="#424141"/>
<path fill-rule="evenodd" clip-rule="evenodd" d="M16.8948 42.8679L22.5264 42.8679L22.5264 48.2264L16.8948 48.2264L16.8948 42.8679Z" fill="#FFFC00"/>
<path fill-rule="evenodd" clip-rule="evenodd" d="M11.2632 42.8679L16.8948 42.8679L16.8948 48.2264L11.2632 48.2264L11.2632 42.8679Z" fill="#15FFAB"/>
<path fill-rule="evenodd" clip-rule="evenodd" d="M5.6316 42.8679L11.2632 42.8679L11.2632 48.2264L5.6316 48.2264L5.6316 42.8679Z" fill="#0AC5EF"/>
<path fill-rule="evenodd" clip-rule="evenodd" d="M1.23978e-05 42.8679L5.63159 42.8679L5.63159 48.2264L1.22043e-05 48.2264L1.23978e-05 42.8679Z" fill="#6741B1"/>
<path opacity="0.5" fill-rule="evenodd" clip-rule="evenodd" d="M0 58.575L107 58.5749L107 69.225L-1.48664e-07 69.225L0 58.575Z" fill="#424141"/>
<path fill-rule="evenodd" clip-rule="evenodd" d="M42.8002 61.6226L64.2002 61.6226L64.2002 66.9811L42.8002 66.9811L42.8002 61.6226Z" fill="#15FFAB"/>
<path fill-rule="evenodd" clip-rule="evenodd" d="M21.4 61.6226L42.8 61.6226L42.8 66.9811L21.4 66.9811L21.4 61.6226Z" fill="#0AC5EF"/>
<path fill-rule="evenodd" clip-rule="evenodd" d="M0.000144958 61.6226L21.4001 61.6226L21.4001 66.9811L0.000144765 66.9811L0.000144958 61.6226Z" fill="#6741B1"/>
</svg>
