<svg width="108" height="106" viewBox="0 0 108 106" fill="none" xmlns="http://www.w3.org/2000/svg">
<path d="M46.5 12.7949H49.275" stroke="white" stroke-linejoin="round"/>
<path opacity="0.2" d="M54.825 12.7949L159.236 12.7949" stroke="white" stroke-linejoin="round"/>
<path d="M46.5 23.304H49.275" stroke="white" stroke-linejoin="round"/>
<path opacity="0.2" d="M54.825 23.3039L159.236 23.304" stroke="white" stroke-linejoin="round"/>
<path d="M46.5 33.813H49.275" stroke="white" stroke-linejoin="round"/>
<path opacity="0.2" d="M54.825 33.813L159.236 33.813" stroke="white" stroke-linejoin="round"/>
<path d="M46.5 44.322H49.275" stroke="white" stroke-linejoin="round"/>
<path opacity="0.2" d="M54.825 44.322L159.236 44.322" stroke="white" stroke-linejoin="round"/>
<path d="M46.5 54.8311H49.275" stroke="white" stroke-linejoin="round"/>
<path opacity="0.2" d="M54.825 54.831L159.236 54.8311" stroke="white" stroke-linejoin="round"/>
<path d="M46.5 65.3401H49.275" stroke="white" stroke-linejoin="round"/>
<path opacity="0.2" d="M54.825 65.3401L159.236 65.3401" stroke="white" stroke-linejoin="round"/>
<path d="M46.5 75.8491H49.275" stroke="white" stroke-linejoin="round"/>
<path opacity="0.2" d="M54.825 75.8491L159.236 75.8491" stroke="white" stroke-linejoin="round"/>
<path d="M46.5 86.3582H49.275" stroke="white" stroke-linejoin="round"/>
<path opacity="0.2" d="M54.825 86.3581L159.236 86.3582" stroke="white" stroke-linejoin="round"/>
<g filter="url(#filter0_f_2102_14286)">
<path d="M157.5 83.875C130.675 83.875 130.816 72.875 107 72.875C83.184 72.875 77.7468 83.875 56.5 83.875" stroke="#F0337F" stroke-width="2" stroke-linecap="round"/>
</g>
<g filter="url(#filter1_f_2102_14286)">
<path d="M157.5 83.875C130.598 83.875 133.165 81.875 109.28 81.875C85.3953 81.875 77.8081 83.875 56.5 83.875" stroke="#DB03F2" stroke-width="2" stroke-linecap="round"/>
</g>
<g filter="url(#filter2_dddd_2102_14286)">
<path d="M157.5 83.875C130.675 83.875 130.816 72.875 107 72.875C83.184 72.875 77.7468 83.875 56.5 83.875" stroke="#F0337F" stroke-width="2" stroke-linecap="round"/>
</g>
<g filter="url(#filter3_dddddd_2102_14286)">
<path d="M157.5 83.875C130.624 83.875 131.208 63.875 107.346 63.875C83.4841 63.875 77.7876 83.875 56.5 83.875" stroke="#E90703" stroke-width="2" stroke-linecap="round"/>
</g>
<path d="M157.5 83.875C130.684 83.875 131.308 55.875 107.5 55.875C83.6917 55.875 81.2931 83.875 57.5 83.875" stroke="#FFFC00" stroke-width="2" stroke-linecap="round"/>
<path d="M157.5 83.875C130.598 83.875 133.165 81.875 109.28 81.875C85.3953 81.875 77.8081 83.875 56.5 83.875" stroke="#DB03F2" stroke-width="2" stroke-linecap="round"/>
<g opacity="0.7" filter="url(#filter4_f_2102_14286)">
<path d="M157.5 14.875C130.787 14.875 132.565 42.875 108.849 42.875C85.1322 42.875 78.6581 14.875 57.5 14.875" stroke="#00FFF0" stroke-width="2" stroke-linecap="round"/>
</g>
<g opacity="0.7" filter="url(#filter5_f_2102_14286)">
<path d="M157.5 14.875C130.787 14.875 131.024 34.875 107.307 34.875C83.5908 34.875 78.6581 14.875 57.5 14.875" stroke="#0AC5EF" stroke-width="2" stroke-linecap="round"/>
</g>
<g opacity="0.7" filter="url(#filter6_f_2102_14286)">
<path d="M157.5 14.875C130.727 14.875 132.991 26.875 109.221 26.875C85.4503 26.875 77.7062 14.875 56.5 14.875" stroke="#1796EC" stroke-width="2" stroke-linecap="round"/>
</g>
<g opacity="0.7" filter="url(#filter7_f_2102_14286)">
<path d="M157.5 14.875C130.675 14.875 132.751 19.875 108.935 19.875C85.1188 19.875 77.7468 14.875 56.5 14.875" stroke="#6741B1" stroke-width="2" stroke-linecap="round"/>
</g>
<path d="M157.5 14.875C130.787 14.875 130.872 42.875 107.155 42.875C83.4386 42.875 78.6581 14.875 57.5 14.875" stroke="#00FFF0" stroke-width="2" stroke-linecap="round"/>
<path d="M157.5 14.875C130.787 14.875 131.024 34.875 107.307 34.875C83.5908 34.875 78.6581 14.875 57.5 14.875" stroke="#0AC5EF" stroke-width="2" stroke-linecap="round"/>
<path d="M157.5 14.875C130.727 14.875 130.425 26.875 106.654 26.875C82.8836 26.875 77.7062 14.875 56.5 14.875" stroke="#1796EC" stroke-width="2" stroke-linecap="round"/>
<path d="M157.5 14.875C130.675 14.875 130.816 19.875 107 19.875C83.184 19.875 77.7468 14.875 56.5 14.875" stroke="#6741B1" stroke-width="2" stroke-linecap="round"/>
<defs>
<filter id="filter0_f_2102_14286" x="41.625" y="58" width="130.75" height="40.75" filterUnits="userSpaceOnUse" color-interpolation-filters="sRGB">
<feFlood flood-opacity="0" result="BackgroundImageFix"/>
<feBlend mode="normal" in="SourceGraphic" in2="BackgroundImageFix" result="shape"/>
<feGaussianBlur stdDeviation="6.9375" result="effect1_foregroundBlur_2102_14286"/>
</filter>
<filter id="filter1_f_2102_14286" x="41.625" y="67" width="130.75" height="31.75" filterUnits="userSpaceOnUse" color-interpolation-filters="sRGB">
<feFlood flood-opacity="0" result="BackgroundImageFix"/>
<feBlend mode="normal" in="SourceGraphic" in2="BackgroundImageFix" result="shape"/>
<feGaussianBlur stdDeviation="6.9375" result="effect1_foregroundBlur_2102_14286"/>
</filter>
<filter id="filter2_dddd_2102_14286" x="43.1033" y="71.875" width="127.793" height="40.8925" filterUnits="userSpaceOnUse" color-interpolation-filters="sRGB">
<feFlood flood-opacity="0" result="BackgroundImageFix"/>
<feColorMatrix in="SourceAlpha" type="matrix" values="0 0 0 0 0 0 0 0 0 0 0 0 0 0 0 0 0 0 127 0" result="hardAlpha"/>
<feOffset dy="1.91978"/>
<feGaussianBlur stdDeviation="0.767914"/>
<feColorMatrix type="matrix" values="0 0 0 0 1 0 0 0 0 0.372549 0 0 0 0 0.0823529 0 0 0 0.140573 0"/>
<feBlend mode="normal" in2="BackgroundImageFix" result="effect1_dropShadow_2102_14286"/>
<feColorMatrix in="SourceAlpha" type="matrix" values="0 0 0 0 0 0 0 0 0 0 0 0 0 0 0 0 0 0 127 0" result="hardAlpha"/>
<feOffset dy="4.61351"/>
<feGaussianBlur stdDeviation="1.8454"/>
<feColorMatrix type="matrix" values="0 0 0 0 1 0 0 0 0 0.372549 0 0 0 0 0.0823529 0 0 0 0.201946 0"/>
<feBlend mode="normal" in2="effect1_dropShadow_2102_14286" result="effect2_dropShadow_2102_14286"/>
<feColorMatrix in="SourceAlpha" type="matrix" values="0 0 0 0 0 0 0 0 0 0 0 0 0 0 0 0 0 0 127 0" result="hardAlpha"/>
<feOffset dy="8.68683"/>
<feGaussianBlur stdDeviation="3.47473"/>
<feColorMatrix type="matrix" values="0 0 0 0 1 0 0 0 0 0.372549 0 0 0 0 0.0823529 0 0 0 0.25 0"/>
<feBlend mode="normal" in2="effect2_dropShadow_2102_14286" result="effect3_dropShadow_2102_14286"/>
<feColorMatrix in="SourceAlpha" type="matrix" values="0 0 0 0 0 0 0 0 0 0 0 0 0 0 0 0 0 0 127 0" result="hardAlpha"/>
<feOffset dy="15.4958"/>
<feGaussianBlur stdDeviation="6.19833"/>
<feColorMatrix type="matrix" values="0 0 0 0 1 0 0 0 0 0.372549 0 0 0 0 0.0823529 0 0 0 0.298054 0"/>
<feBlend mode="normal" in2="effect3_dropShadow_2102_14286" result="effect4_dropShadow_2102_14286"/>
<feBlend mode="normal" in="SourceGraphic" in2="effect4_dropShadow_2102_14286" result="shape"/>
</filter>
<filter id="filter3_dddddd_2102_14286" x="0" y="62.875" width="214" height="146.875" filterUnits="userSpaceOnUse" color-interpolation-filters="sRGB">
<feFlood flood-opacity="0" result="BackgroundImageFix"/>
<feColorMatrix in="SourceAlpha" type="matrix" values="0 0 0 0 0 0 0 0 0 0 0 0 0 0 0 0 0 0 127 0" result="hardAlpha"/>
<feOffset dy="1.91978"/>
<feGaussianBlur stdDeviation="0.767914"/>
<feColorMatrix type="matrix" values="0 0 0 0 1 0 0 0 0 0.0745098 0 0 0 0 0.368627 0 0 0 0.0955895 0"/>
<feBlend mode="normal" in2="BackgroundImageFix" result="effect1_dropShadow_2102_14286"/>
<feColorMatrix in="SourceAlpha" type="matrix" values="0 0 0 0 0 0 0 0 0 0 0 0 0 0 0 0 0 0 127 0" result="hardAlpha"/>
<feOffset dy="4.61351"/>
<feGaussianBlur stdDeviation="1.8454"/>
<feColorMatrix type="matrix" values="0 0 0 0 1 0 0 0 0 0.0745098 0 0 0 0 0.368627 0 0 0 0.137324 0"/>
<feBlend mode="normal" in2="effect1_dropShadow_2102_14286" result="effect2_dropShadow_2102_14286"/>
<feColorMatrix in="SourceAlpha" type="matrix" values="0 0 0 0 0 0 0 0 0 0 0 0 0 0 0 0 0 0 127 0" result="hardAlpha"/>
<feOffset dy="8.68683"/>
<feGaussianBlur stdDeviation="3.47473"/>
<feColorMatrix type="matrix" values="0 0 0 0 1 0 0 0 0 0.0745098 0 0 0 0 0.368627 0 0 0 0.17 0"/>
<feBlend mode="normal" in2="effect2_dropShadow_2102_14286" result="effect3_dropShadow_2102_14286"/>
<feColorMatrix in="SourceAlpha" type="matrix" values="0 0 0 0 0 0 0 0 0 0 0 0 0 0 0 0 0 0 127 0" result="hardAlpha"/>
<feOffset dy="15.4958"/>
<feGaussianBlur stdDeviation="6.19833"/>
<feColorMatrix type="matrix" values="0 0 0 0 1 0 0 0 0 0.0745098 0 0 0 0 0.368627 0 0 0 0.202676 0"/>
<feBlend mode="normal" in2="effect3_dropShadow_2102_14286" result="effect4_dropShadow_2102_14286"/>
<feColorMatrix in="SourceAlpha" type="matrix" values="0 0 0 0 0 0 0 0 0 0 0 0 0 0 0 0 0 0 127 0" result="hardAlpha"/>
<feOffset dy="28.9832"/>
<feGaussianBlur stdDeviation="11.5933"/>
<feColorMatrix type="matrix" values="0 0 0 0 1 0 0 0 0 0.0745098 0 0 0 0 0.368627 0 0 0 0.24441 0"/>
<feBlend mode="normal" in2="effect4_dropShadow_2102_14286" result="effect5_dropShadow_2102_14286"/>
<feColorMatrix in="SourceAlpha" type="matrix" values="0 0 0 0 0 0 0 0 0 0 0 0 0 0 0 0 0 0 127 0" result="hardAlpha"/>
<feOffset dy="69.375"/>
<feGaussianBlur stdDeviation="27.75"/>
<feColorMatrix type="matrix" values="0 0 0 0 1 0 0 0 0 0.0745098 0 0 0 0 0.368627 0 0 0 0.34 0"/>
<feBlend mode="normal" in2="effect5_dropShadow_2102_14286" result="effect6_dropShadow_2102_14286"/>
<feBlend mode="normal" in="SourceGraphic" in2="effect6_dropShadow_2102_14286" result="shape"/>
</filter>
<filter id="filter4_f_2102_14286" x="42.625" y="0" width="129.75" height="57.75" filterUnits="userSpaceOnUse" color-interpolation-filters="sRGB">
<feFlood flood-opacity="0" result="BackgroundImageFix"/>
<feBlend mode="normal" in="SourceGraphic" in2="BackgroundImageFix" result="shape"/>
<feGaussianBlur stdDeviation="6.9375" result="effect1_foregroundBlur_2102_14286"/>
</filter>
<filter id="filter5_f_2102_14286" x="42.625" y="0" width="129.75" height="49.75" filterUnits="userSpaceOnUse" color-interpolation-filters="sRGB">
<feFlood flood-opacity="0" result="BackgroundImageFix"/>
<feBlend mode="normal" in="SourceGraphic" in2="BackgroundImageFix" result="shape"/>
<feGaussianBlur stdDeviation="6.9375" result="effect1_foregroundBlur_2102_14286"/>
</filter>
<filter id="filter6_f_2102_14286" x="41.625" y="0" width="130.75" height="41.75" filterUnits="userSpaceOnUse" color-interpolation-filters="sRGB">
<feFlood flood-opacity="0" result="BackgroundImageFix"/>
<feBlend mode="normal" in="SourceGraphic" in2="BackgroundImageFix" result="shape"/>
<feGaussianBlur stdDeviation="6.9375" result="effect1_foregroundBlur_2102_14286"/>
</filter>
<filter id="filter7_f_2102_14286" x="41.625" y="0" width="130.75" height="34.75" filterUnits="userSpaceOnUse" color-interpolation-filters="sRGB">
<feFlood flood-opacity="0" result="BackgroundImageFix"/>
<feBlend mode="normal" in="SourceGraphic" in2="BackgroundImageFix" result="shape"/>
<feGaussianBlur stdDeviation="6.9375" result="effect1_foregroundBlur_2102_14286"/>
</filter>
</defs>
</svg>
