<svg xmlns="http://www.w3.org/2000/svg" width="631.2749" height="210.22563" viewBox="0 0 631.2749 210.22563" role="img" aria-label="IOI logo (light)">
  <defs>
    <linearGradient id="linear-gradient" x1="295.29922" y1="544.37323" x2="485.37869" y2="544.37323" gradientUnits="userSpaceOnUse">
      <stop offset="0" stop-color="#3650c0"/>
      <stop offset="1" stop-color="#346acf"/>
    </linearGradient>
    <linearGradient id="linear-gradient1" x1="302.60983" y1="421.96817" x2="697.38995" y2="421.96817" gradientUnits="userSpaceOnUse">
      <stop offset="0" stop-color="#f7f8f7"/>
      <stop offset="1" stop-color="#b0c6f4"/>
    </linearGradient>
    <linearGradient id="linear-gradient2" x1="797.68262" y1="740.59412" x2="797.68262" y2="425.08493" gradientUnits="userSpaceOnUse">
      <stop offset=".2011173" stop-color="#3b5eda"/>
      <stop offset="1" stop-color="#2740a8"/>
    </linearGradient>
    <linearGradient id="linear-gradient3" x1="609.66095" y1="654.11517" x2="609.66095" y2="434.63083" gradientUnits="userSpaceOnUse">
      <stop offset="0" stop-color="#c8dcfd"/>
      <stop offset="1" stop-color="#93bef8"/>
    </linearGradient>
    <linearGradient id="linear-gradient4" x1="223.74698" y1="846.12201" x2="392.67313" y2="694.02026" gradientUnits="userSpaceOnUse">
      <stop offset="0" stop-color="#83a0e0"/>
      <stop offset="1" stop-color="#5b86de"/>
    </linearGradient>
    <linearGradient id="linear-gradient5" x1="518.72632" y1="314.34213" x2="622.43689" y2="252.02652" gradientUnits="userSpaceOnUse">
      <stop offset="0" stop-color="#759ce8"/>
      <stop offset=".2891517" stop-color="#7198e5"/>
      <stop offset=".5483354" stop-color="#688dde"/>
      <stop offset=".7952114" stop-color="#587bd2"/>
      <stop offset="1" stop-color="#4666c4"/>
    </linearGradient>
    <linearGradient id="linear-gradient6" x1="202.31723" y1="740.59436" x2="202.31723" y2="425.0856" gradientUnits="userSpaceOnUse">
      <stop offset="0" stop-color="#d3d3df"/>
      <stop offset=".5313341" stop-color="#e8e9ed"/>
      <stop offset="1" stop-color="#f7f8f7"/>
    </linearGradient>
    <linearGradient id="linear-gradient7" x1="688.67969" y1="780.74152" x2="688.67969" y2="675.21942" gradientUnits="userSpaceOnUse">
      <stop offset="0" stop-color="#5a8cec"/>
      <stop offset="1" stop-color="#3b67d3"/>
    </linearGradient>
    <linearGradient id="linear-gradient8" x1="389.87204" y1="414.0657" x2="389.87204" y2="104.77927" gradientUnits="userSpaceOnUse">
      <stop offset="0" stop-color="#f7f8f7"/>
      <stop offset="1" stop-color="#b2c8f4"/>
    </linearGradient>
    <linearGradient id="linear-gradient9" x1="401.3049" y1="780.74152" x2="401.3049" y2="552.8147" gradientUnits="userSpaceOnUse">
      <stop offset="0" stop-color="#75abf0"/>
      <stop offset=".3161919" stop-color="#699aeb"/>
      <stop offset=".9357774" stop-color="#4d6fe0"/>
      <stop offset="1" stop-color="#4a6bdf"/>
    </linearGradient>
    <linearGradient id="linear-gradient10" x1="598.69513" y1="780.74139" x2="598.69513" y2="552.8147" gradientUnits="userSpaceOnUse">
      <stop offset="0" stop-color="#bbd8f2"/>
      <stop offset=".1644974" stop-color="#b3d3f1"/>
      <stop offset=".4133375" stop-color="#9ec6ef"/>
      <stop offset=".7138602" stop-color="#7cb0ed"/>
      <stop offset="1" stop-color="#5698ea"/>
    </linearGradient>
  </defs>

  <g transform="matrix(0.30954877,0,0,0.30954877,-38.370644,-32.434294)">
    <polygon fill="url(#linear-gradient)" points="295.29922,434.6309 295.29922,654.11552 485.37869,544.37308"/>
    <polygon fill="url(#linear-gradient1)" points="499.99985,308.00492 302.60983,421.96842 500.00003,535.93143 697.38998,421.96836"/>
    <polygon fill="url(#linear-gradient2)" points="876.0433,695.9025 719.32187,425.08494 719.32187,662.5568 854.48666,740.59409"/>
    <polygon fill="url(#linear-gradient3)" points="514.62137,544.37308 704.70053,654.11515 704.70053,434.63084"/>
    <polygon fill="url(#linear-gradient4)" points="164.87808,780.74149 470.75729,780.74149 287.98837,675.21964 151.88309,753.80002"/>
    <polygon fill="url(#linear-gradient5)" points="533.96182,104.77927 507.31009,104.77927 507.31009,295.34232 712.94528,414.06602"/>
    <polygon fill="url(#linear-gradient6)" points="123.9567,695.9025 145.51346,740.59434 280.67776,662.55717 280.67776,425.08561"/>
    <polygon fill="url(#linear-gradient7)" points="835.12192,780.74149 848.11703,753.79978 712.01157,675.2194 529.2424,780.74149"/>
    <polygon fill="url(#linear-gradient8)" points="466.03824,104.77927 287.05496,414.06571 492.68912,295.34263 492.68912,104.77927"/>
    <polygon fill="url(#linear-gradient9)" points="500.00003,780.74137 500.00003,552.81467 302.60977,666.77799 499.99985,780.74149"/>
    <polygon fill="url(#linear-gradient10)" points="500.00003,552.81467 500.00003,780.74137 697.39023,666.77781"/>
  </g>

  <path fill="#fff" d="m 302.66593,124.62437 c -0.47248,-30.58063 -0.98639,-60.288114 -1.14134,-66.016614 l -0.28196,-10.41545 h 11.69595 11.6959 l 1.02037,66.016534 1.02042,66.01667 h -11.57502 -11.57503 l -0.85957,-55.60114 z m 123.41846,55.28441 c -11.33074,-1.65456 -21.81342,-6.86601 -30.65495,-15.2398 -2.12515,-2.01268 -6.07462,-6.57454 -7.8862,-9.109 -6.94762,-9.72003 -11.30211,-21.1454 -12.83846,-33.68561 -0.4747,-3.87437 -0.59309,-11.21415 -0.2423,-15.01633 0.50278,-5.4479 1.56885,-10.87489 3.09628,-15.7601 7.27158,-23.257194 25.85744,-39.904844 47.42948,-42.483844 1.46752,-0.17532 12.60294,-0.22104 41.74047,-0.17031 43.80384,0.0758 40.24878,-0.025 45.6825,1.33483 14.33599,3.59522 27.24561,13.45682 35.77511,27.328244 5.1944,8.4478 8.61437,18.20565 10.02534,28.60377 0.45818,3.3758 0.71628,10.50162 0.50719,13.99095 -0.97268,16.22029 -6.83957,30.90542 -16.82174,42.10556 -9.00531,10.10418 -20.33571,16.3206 -33.00506,18.10791 -1.89782,0.268 -7.61856,0.30744 -41.57944,0.28678 -31.19066,-0.0188 -39.76363,-0.0795 -41.22806,-0.29367 z m 79.3721,-25.79974 c 0,-0.11387 0.20926,-0.20725 0.46974,-0.20725 0.85846,0 4.11433,-0.84247 6.14863,-1.59088 5.09741,-1.87561 9.83474,-5.23362 13.70804,-9.71677 6.65784,-7.70598 10.03316,-17.38298 9.86476,-28.2816 -0.17016,-10.98146 -3.91267,-20.70137 -10.98882,-28.53695 -5.03343,-5.57364 -11.41186,-9.29229 -18.69494,-10.899 -2.00857,-0.44334 -2.07367,-0.44397 -38.92543,-0.51597 -26.18636,-0.0502 -37.44242,-0.007 -38.73284,0.15714 -8.13538,1.02707 -15.39799,4.94778 -20.94951,11.30946 -8.46204,9.69724 -11.83581,23.25882 -9.17447,36.87939 2.28519,11.69494 9.76987,22.30702 19.44648,27.57138 3.466,1.88562 6.53404,2.94987 10.44617,3.62346 2.06517,0.35568 4.38725,0.37884 39.78955,0.39638 24.95336,0.0117 37.59512,-0.0501 37.59292,-0.18911 z M 607.07216,114.5716 c -0.58935,-36.10963 -1.04255,-65.817114 -1.00901,-66.016604 0.0578,-0.34065 0.76401,-0.36257 11.73576,-0.36257 h 11.67458 l 0.033,9.7936 c 0.0165,5.38654 0.42182,35.094024 0.89954,66.016674 l 0.86888,56.22293 h -11.56376 -11.56374 l -1.07174,-65.65391 z"/>
</svg>
